<svg width="220" height="597" viewBox="0 0 220 597" fill="none" xmlns="http://www.w3.org/2000/svg">
<g clip-path="url(#clip0)">
<path d="M86.8269 300.306C86.8269 300.306 76.1129 333.856 72.6224 346.734C65.2535 373.845 85.7604 689.74 85.7604 689.74H124.883C124.883 689.74 147.426 457.745 151.644 415.819C155.862 373.894 151.644 306.116 151.644 306.116L86.8269 300.306Z" fill="#FFCB58"/>
<path d="M112.279 363.437L113.442 689.74H124.883L151.305 403.426L112.279 363.437Z" fill="#E59E74"/>
<path d="M186.743 307.374C186.743 307.374 198.815 344.362 202.596 358.644C208.317 380.042 182.623 690.273 182.623 690.273H140.639C140.639 690.273 116.06 404.007 113.297 380.962C110.485 357.966 118.193 309.117 118.193 309.117L186.743 307.374Z" fill="#FFCB58"/>
<path d="M116.787 323.012C116.787 323.012 113.491 349.494 112.23 362.42C110.97 375.346 140.591 690.273 140.591 690.273H187.422L192.367 678.024H166.042" stroke="#E59E74" stroke-width="2" stroke-miterlimit="10" stroke-linecap="round" stroke-linejoin="round"/>
<path d="M172.442 327.369C172.442 327.369 180.974 362.371 203.857 367.019" stroke="#E59E74" stroke-width="2" stroke-miterlimit="10" stroke-linecap="round" stroke-linejoin="round"/>
<path d="M151.304 107.767C182.671 112.173 200.657 115.852 208.753 163.103C216.849 210.355 238.277 301.662 185.919 310.666C133.561 319.671 92.5472 285.492 97.3467 196.654C102.146 107.816 125.853 104.185 151.304 107.767Z" fill="#967CDF"/>
<path d="M74.7554 137.541C65.5928 149.984 32.5783 212.001 32.7722 242.065C32.9661 269.08 66.8533 272.807 73.7859 253.152C82.2213 229.381 93.7594 125.777 88.1843 128.198C83.5302 130.183 79.6519 130.86 74.7554 137.541Z" fill="#404299"/>
<path d="M75.6764 142.673C76.9854 131.587 94.7289 116.917 149.365 121.952C192.27 125.922 215.637 152.743 215.54 159.037C215.394 169.155 199.445 305.002 193.094 312.216C184.416 322.043 148.105 326.982 119.841 320.93C99.9647 316.67 84.5967 307.423 81.5424 300.79C77.3732 291.64 73.5918 160.102 75.6764 142.673Z" fill="#3372F7"/>
<path d="M80.9122 257.702C80.9122 257.702 79.5548 271.355 81.1061 282.684L75.9188 282.635C75.9188 282.635 73.7857 270.193 74.5614 260.898" fill="#44485D"/>
<path d="M62.7325 184.889C61.6175 185.422 60.2116 185.373 59.145 184.55C57.6422 183.388 57.3028 181.258 58.4663 179.709C58.9026 179.128 62.878 173.9 65.7867 171.43C69.2288 168.526 73.3495 166.299 77.2764 164.362C78.9732 163.539 81.0578 164.217 81.8819 165.911C82.7061 167.606 82.0274 169.688 80.3306 170.511C76.7916 172.254 73.1072 174.19 70.1984 176.659C68.2107 178.354 65.0111 182.372 63.896 183.824C63.6052 184.308 63.1688 184.647 62.7325 184.889Z" fill="#FFC881"/>
<path d="M55.6061 208.999C55.5091 204.303 56.8665 191.812 57.3028 184.502C57.5452 180.871 57.3513 179.854 60.6479 177.192L64.4778 174.48L68.1138 179.564C73.398 187.31 75.3372 192.442 76.2583 195.298C77.7612 199.897 77.9551 203.867 77.5188 207.062C76.9855 211.032 74.61 213.55 72.7193 214.954C71.2165 216.067 70.6832 217.859 70.3923 219.698C68.7925 229.381 70.8286 248.552 65.5928 257.412C59.4844 267.821 45.3284 264.141 40.335 257.945C31.9481 247.536 30.3967 236.982 33.5964 227.541C38.8322 212.194 55.703 216.6 55.6061 208.999Z" fill="#FFC881"/>
<path d="M75.9675 194.427L75.8705 194.281L71.0711 196.654C71.0711 196.654 71.5559 201.834 74.4162 205.223C75.2403 206.191 76.3553 206.869 77.5673 207.111C78.0036 203.916 77.8097 199.946 76.3069 195.347C76.1614 195.056 76.0645 194.766 75.9675 194.427Z" fill="#E59E74"/>
<path d="M75.5797 262.35L78.8763 262.495C81.6881 262.592 83.4818 260.414 83.6273 257.606C84.209 244.195 86.633 200.72 90.4629 160.295C93.3232 130.037 95.7956 125.196 100.11 123.792L106.51 122.533C103.989 120.016 100.013 118.854 97.2015 119.241C92.8384 119.822 81.8335 123.453 78.0037 125.002C74.1738 126.552 70.3924 150.807 70.6348 188.472C70.7802 209.725 70.9741 247.391 71.6529 258.622C71.8953 261.237 72.9618 262.253 75.5797 262.35Z" fill="#967CDF" stroke="#967CDF" stroke-miterlimit="10"/>
<path d="M97.2985 120.548C92.1112 123.744 90.1235 130.521 88.0389 151.775C86.5845 166.831 82.5607 237.805 82.5607 237.805" stroke="#44485D" stroke-width="2" stroke-miterlimit="10" stroke-linecap="round" stroke-linejoin="round"/>
<path d="M88.0873 180.096C87.1662 180.532 86.0511 180.629 85.0331 180.193C80.6214 178.257 76.5007 176.756 74.7554 176.514C72.9617 177.192 69.4711 179.903 64.8656 183.146C63.2173 184.308 60.9387 183.921 59.7752 182.275C58.6117 180.629 58.9996 178.354 60.6479 177.192C68.7924 171.43 71.7012 169.446 74.0282 169.203C76.8885 168.961 82.4636 171.14 87.8934 173.464C89.7356 174.287 90.6082 176.417 89.784 178.257C89.4932 179.128 88.8629 179.758 88.0873 180.096Z" fill="#FFC881"/>
<path d="M85.7117 190.021C85.4209 190.166 85.1785 190.263 84.8391 190.312C82.8514 190.747 80.9123 189.488 80.5244 187.504C80.1851 185.954 79.7488 184.308 79.4579 183.388C78.1004 182.614 75.2886 181.307 73.9797 180.871C72.1375 181.694 67.1441 184.647 63.1203 187.261C61.4235 188.375 59.1935 187.891 58.0784 186.196C56.9634 184.502 57.4482 182.275 59.145 181.161C71.2648 173.27 73.0586 173.415 74.1736 173.464C76.8885 173.657 83.6271 177.192 84.6452 178.063C85.3239 178.644 86.2935 179.467 87.6509 185.954C88.0387 187.697 87.1661 189.295 85.7117 190.021Z" fill="#FFC881"/>
<path d="M64.3323 178.16C73.3495 172.786 73.301 173.367 74.2706 173.464C76.9855 173.657 83.7241 177.192 84.7422 178.063" stroke="#FFB76B" stroke-width="2" stroke-miterlimit="10" stroke-linecap="round" stroke-linejoin="round"/>
<path d="M81.0579 196.799C79.3611 197.622 77.228 197.041 76.2584 195.347C75.2403 193.604 75.8706 191.377 77.6158 190.36C78.1006 190.069 78.6339 189.779 79.1187 189.489C78.1491 188.472 77.0341 187.407 76.113 186.584C74.3192 187.939 71.4105 190.36 69.035 192.539C67.5321 193.894 65.2536 193.749 63.8961 192.297C62.5387 190.796 62.6357 188.52 64.1385 187.165C74.3192 177.966 75.8706 178.015 77.9552 178.934C78.4885 179.177 79.3126 179.515 83.3849 183.534C87.6026 187.697 87.748 188.278 87.942 189.101C88.7661 192.248 85.9058 194.088 81.2033 196.75C81.2033 196.75 81.1064 196.75 81.0579 196.799Z" fill="#FFC881"/>
<path d="M78.343 187.649L77.4704 188.278C77.9067 188.714 78.3915 189.198 78.8278 189.634C78.343 189.924 77.8097 190.215 77.3249 190.505C75.5797 191.522 74.9494 193.749 75.9675 195.492C76.9371 197.186 79.0217 197.816 80.767 196.944C80.8155 196.896 80.9124 196.896 80.9609 196.847C82.2214 196.121 83.3364 195.492 84.2575 194.862L78.343 187.649Z" fill="#FFB76B"/>
<path d="M65.6413 185.858C74.61 177.918 76.1129 177.966 78.1006 178.838C78.6338 179.08 79.458 179.419 83.5303 183.437" stroke="#FFB76B" stroke-width="2" stroke-miterlimit="10" stroke-linecap="round" stroke-linejoin="round"/>
<path d="M81.5427 202.754C80.3792 203.335 78.9248 203.238 77.8097 202.415C76.1614 201.253 75.8221 198.978 76.9856 197.331C77.6158 196.46 78.0037 194.959 78.0521 193.216L69.4228 197.477C67.629 198.348 65.4475 197.622 64.5264 195.831C63.6052 194.039 64.3809 191.861 66.1747 190.941L75.2888 186.439C77.6158 185.277 80.3307 185.519 82.4153 187.019C84.209 188.327 85.2756 190.408 85.2756 192.587C85.3241 195.104 84.8877 198.735 82.8031 201.64C82.5123 202.076 82.0759 202.463 81.5427 202.754Z" fill="#FFC881"/>
<path d="M78.149 193.168L69.5196 197.428L78.149 193.168ZM66.2715 190.844L75.3856 186.342C77.7126 185.18 80.4275 185.422 82.5121 186.923L66.2715 190.844Z" stroke="#FFB76B" stroke-width="2" stroke-miterlimit="10" stroke-linecap="round" stroke-linejoin="round"/>
<path d="M41.2075 252.91C43.7284 254.604 44.4072 258.622 44.4072 258.622" stroke="#FFB76B" stroke-width="2" stroke-miterlimit="10" stroke-linecap="round" stroke-linejoin="round"/>
<path d="M61.2298 212.291C61.2298 212.291 63.5568 218.294 67.3867 216.987" stroke="#FFB76B" stroke-width="2" stroke-miterlimit="10" stroke-linecap="round" stroke-linejoin="round"/>
<path d="M59.2419 182.808C59.2419 182.808 61.9083 188.714 63.896 192.781" stroke="#FFB76B" stroke-width="2" stroke-miterlimit="10" stroke-linecap="round" stroke-linejoin="round"/>
<path d="M215.588 159.037C221.648 187.455 205.165 270.532 203.42 281.909C201.142 296.772 190.815 302.097 182.913 302C165.606 301.807 155.425 294.109 159.401 263.367L177.193 180.242C183.543 160.78 191.882 148.337 201.917 148.725C214.134 149.209 215.588 159.037 215.588 159.037Z" fill="#404299"/>
<path d="M172.296 254.217C162.212 256.928 161.825 265.933 161.825 265.933C164.539 260.946 181.071 249.811 193.336 264.625" stroke="#3372F7" stroke-width="2" stroke-miterlimit="10" stroke-linecap="round" stroke-linejoin="round"/>
<path d="M177.096 298.466C158.819 303.404 127.598 313.716 109.758 320.639L103.31 305.244L160.516 266.078C170.454 257.799 189.07 258.768 193.579 273.146C196.051 281.134 192.367 294.351 177.096 298.466Z" fill="#FFC881"/>
<path d="M109.758 320.639C99.6255 325.965 72.5739 325.578 72.5739 325.578C63.993 324.997 65.9322 322.77 65.9322 322.77L84.112 315.459C90.5113 313.474 88.8145 308.1 88.8145 308.1C88.8145 308.1 89.8811 302 95.5047 300.839C101.225 299.677 105.976 300.064 108.4 300.451C109.564 300.645 110.727 300.403 111.648 299.725L116.399 296.53C116.351 296.627 128.277 310.957 109.758 320.639Z" fill="#FFC881"/>
<path d="M95.4077 308.391C92.6929 308.536 88.96 308.585 88.96 308.585" stroke="#FFB76B" stroke-width="2" stroke-miterlimit="10" stroke-linecap="round" stroke-linejoin="round"/>
<path d="M95.4078 308.391L88.8146 308.1C88.4268 308.052 87.942 308.488 88.1844 308.827C90.5114 311.586 86.827 314.588 84.0636 315.508C84.0636 315.508 96.2805 314.055 95.4078 308.391Z" fill="#FFB76B"/>
<path d="M0.824211 325.916C3.24819 326.885 6.06 327.901 8.72637 328.047L46.3949 329.741C47.8978 329.838 49.4492 329.547 50.8551 329.015L84.112 315.604C86.8753 314.491 89.5417 313.087 92.0142 311.441L92.1596 311.296C92.5959 310.908 92.8383 310.376 92.8868 309.795L92.8383 308.536L0.824211 325.916Z" fill="#44485D"/>
<path d="M91.384 310.085L48.2372 326.159C47.3646 326.449 46.492 326.594 45.6193 326.594L0.872729 325.965C9.80832e-05 325.82 -0.484697 324.658 0.969688 324.222L47.8494 309.214C48.5281 309.02 49.2553 308.923 49.934 308.875L91.4325 308.004C93.4686 307.907 93.2747 309.408 91.384 310.085Z" fill="#C1D8FB"/>
<path d="M43.4377 323.689C46.8797 323.108 47.8978 321.317 46.7828 320.688C45.6677 320.058 42.1287 318.751 46.3949 315.314C49.2552 312.99 46.7828 311.828 45.2799 311.296L10.0838 322.576C9.7929 322.673 9.88985 323.06 10.1807 323.06L43.4377 323.689Z" fill="white"/>
<path d="M25.2579 324.755L26.0821 324.851" stroke="white" stroke-width="2" stroke-miterlimit="10" stroke-linecap="round" stroke-linejoin="round"/>
<path d="M95.3109 305.147C94.2443 306.358 92.8869 307.229 91.3356 307.713C87.6996 308.778 80.6701 310.812 78.9248 310.715C77.8583 310.666 76.9856 309.892 76.7432 308.875C76.5008 307.665 77.228 306.503 78.3915 306.164C85.2271 304.324 89.7842 302.049 95.4078 300.887C99.2377 300.112 97.1531 303.065 95.3109 305.147Z" fill="#FFC881"/>
<path d="M112.763 303.065C112.763 303.065 115.042 306.842 112.715 308.439" stroke="#FFB76B" stroke-width="2" stroke-miterlimit="10" stroke-linecap="round" stroke-linejoin="round"/>
<path d="M111.551 131.151C110.533 136.186 112.618 141.463 117.029 144.222C117.223 144.319 117.369 144.416 117.563 144.513C127.937 150.226 152.226 152.259 161.825 136.186C163.327 133.668 163.861 130.715 163.376 127.81C162.018 119.193 158.77 96.3903 157.607 67.6329L115.284 98.7625C115.284 98.7625 115.187 112.948 111.551 131.151Z" fill="#FFC881"/>
<path d="M114.799 107.67C114.799 107.719 137.003 134.975 149.511 85.1584L114.799 107.67Z" fill="#FFB76B"/>
<path d="M112.424 126.455C112.424 126.455 107.237 137.154 105.152 149.887L124.786 147.611L151.838 158.988C151.838 158.988 160.758 141.753 163.521 132.942C164.588 129.553 163.231 126.019 162.697 123.405C162.697 123.405 144.905 148.628 125.174 144.319C114.993 142.141 112.424 126.455 112.424 126.455Z" fill="#404299"/>
<path d="M102.728 15.0564C102.728 15.0564 83.6758 22.2699 96.4744 45.6534C109.273 69.0369 123.72 16.8961 123.72 16.8961L102.728 15.0564Z" fill="#44485D"/>
<path d="M103.213 18.3001C90.5598 26.143 87.6995 55.3844 90.5114 64.244C95.6987 80.5108 99.577 102.297 108.061 105.879C125.077 113.141 152.226 90.4839 156.589 68.9401L157.607 67.5845C159.449 68.5044 161.679 67.8266 162.649 66.0353C164.297 63.0337 165.703 59.2575 166.43 55.2876C167.351 50.1074 164.443 47.9288 162.406 48.7034C160.37 49.4781 159.207 53.1574 159.207 53.1574C159.207 53.1574 165.509 35.1478 165.558 30.7422C165.606 26.2882 164.637 22.1247 161.631 19.1231C146.699 4.40553 114.315 11.377 103.213 18.3001Z" fill="#FFC881"/>
<path d="M165.267 24.3033L144.372 33.5986C144.372 33.5986 145.196 23.0446 134.579 21.4954C127.065 20.4303 103.698 21.7374 100.256 21.2533C92.0627 20.043 86.6815 12.0548 97.6863 12.3453C99.3831 12.3937 101.031 11.8127 102.534 11.0381C104.086 10.2635 106.316 9.10162 109.031 7.89129C133.076 -3.2437 147.475 -1.45242 157.51 6.58414C170.406 16.8477 165.267 24.3033 165.267 24.3033Z" fill="#44485D"/>
<path d="M162.358 26.8692L145.099 36.4065C145.099 36.4065 145.875 62.4043 159.158 53.1574C159.158 53.1574 166.43 40.4248 167.788 32.0493C168.854 25.8041 165.073 25.4168 162.358 26.8692Z" fill="#44485D"/>
<path d="M82.5122 50.6884C83.1909 48.8487 84.6937 47.7352 86.2451 47.8804L96.8136 48.8487C98.5589 48.9939 100.062 50.5432 100.644 52.7217C100.983 53.9805 100.886 55.2876 100.595 56.5464C98.365 66.1322 91.0446 71.6028 85.324 65.648C81.9789 62.1623 82.0759 56.498 82.0759 53.0122C82.0759 52.1892 82.2213 51.4146 82.5122 50.6884Z" stroke="#44485D" stroke-width="2" stroke-miterlimit="10" stroke-linecap="round" stroke-linejoin="round"/>
<path d="M134.434 51.3662C133.561 49.4781 131.67 48.2678 129.586 48.3162L115.721 48.6551C113.442 48.7035 111.406 50.1559 110.63 52.286C110.145 53.4964 110.242 54.8519 110.582 56.1107C113.297 65.8417 121.49 72.7647 130.943 66.6647C135.355 63.8083 134.773 57.1758 134.87 53.69C134.918 52.867 134.724 52.0924 134.434 51.3662Z" stroke="#44485D" stroke-width="2" stroke-miterlimit="10" stroke-linecap="round" stroke-linejoin="round"/>
<path d="M100.159 58.1924C100.159 58.1924 100.644 52.7217 105.298 52.8186C109.079 52.9154 111.261 58.1924 111.261 58.1924" stroke="#44485D" stroke-width="2" stroke-miterlimit="10" stroke-linecap="round" stroke-linejoin="round"/>
<path d="M134.87 53.69L159.207 53.1574" stroke="#44485D" stroke-width="2" stroke-miterlimit="10" stroke-linecap="round" stroke-linejoin="round"/>
<path d="M105.492 49.9138L100.159 74.1203C100.159 74.1203 104.473 75.8147 110.291 74.6528" stroke="#44485D" stroke-width="2" stroke-miterlimit="10" stroke-linecap="round" stroke-linejoin="round"/>
<path d="M107.625 82.6894C111.164 85.9815 120.666 92.8077 124.641 76.6862C124.883 75.7663 123.962 74.9433 123.041 75.2822L108.012 80.7045C107.14 80.9465 106.946 82.06 107.625 82.6894Z" fill="white"/>
<path d="M90.5113 44.6852C90.5113 44.6852 92.0626 39.0208 100.886 42.8939" stroke="#44485D" stroke-width="3" stroke-miterlimit="10" stroke-linecap="round" stroke-linejoin="round"/>
<path d="M115.575 41.3447C115.575 41.3447 129.925 36.9875 134.87 46.2344" stroke="#44485D" stroke-width="3" stroke-miterlimit="10" stroke-linecap="round" stroke-linejoin="round"/>
<path d="M161.922 55.1908C163.715 55.2393 163.715 59.2091 161.388 61.4845" stroke="#FFB76B" stroke-width="2" stroke-miterlimit="10" stroke-linecap="round" stroke-linejoin="round"/>
<path d="M97.977 56.1591C98.074 56.8853 97.5892 57.6599 96.1348 57.7567C94.9713 57.8535 93.1291 56.0622 93.3715 55.8686C94.0502 55.2392 95.5531 55.2392 95.747 55.1908C96.862 55.0456 97.8801 55.4329 97.977 56.1591Z" fill="#44485D"/>
<path d="M118.727 55.7234C118.63 56.4496 119.114 57.2242 120.569 57.321C121.732 57.4178 123.574 55.6266 123.332 55.4329C122.653 54.8035 121.15 54.8035 120.957 54.7551C119.842 54.6099 118.823 55.0456 118.727 55.7234Z" fill="#44485D"/>
<path d="M125.271 284.669C151.483 284.669 172.732 263.448 172.732 237.272C172.732 211.096 151.483 189.876 125.271 189.876C99.0588 189.876 77.8096 211.096 77.8096 237.272C77.8096 263.448 99.0588 284.669 125.271 284.669Z" fill="url(#paint0_radial)"/>
<path opacity="0.5" d="M124.98 261.14C145.061 261.14 161.34 244.883 161.34 224.83C161.34 204.777 145.061 188.52 124.98 188.52C104.899 188.52 88.6205 204.777 88.6205 224.83C88.6205 244.883 104.899 261.14 124.98 261.14Z" fill="#C1D8FB"/>
<path d="M124.883 254.604C141.43 254.604 154.843 241.209 154.843 224.685C154.843 208.161 141.43 194.766 124.883 194.766C108.336 194.766 94.9228 208.161 94.9228 224.685C94.9228 241.209 108.336 254.604 124.883 254.604Z" fill="white"/>
<path d="M110.921 224.055L121.441 235.19L139.039 215.632" stroke="#FFCB58" stroke-width="12" stroke-miterlimit="10" stroke-linecap="round" stroke-linejoin="round"/>
<path d="M150.286 222.99C150.868 231.801 146.844 240.661 138.942 245.89C127.21 253.636 111.406 250.44 103.649 238.725C95.8924 227.009 99.092 211.226 110.824 203.48C122.556 195.734 138.36 198.929 146.117 210.645" stroke="#7AA3FA" stroke-width="2" stroke-miterlimit="10" stroke-linecap="round" stroke-linejoin="round"/>
<path d="M119.114 249.472C109.176 247.197 101.468 239.16 99.7224 229.042" stroke="#44485D" stroke-width="2" stroke-miterlimit="10" stroke-linecap="round" stroke-linejoin="round"/>
<path d="M124.883 199.22C131.913 199.22 138.312 202.076 142.917 206.675" stroke="#FFCB58" stroke-width="2" stroke-miterlimit="10" stroke-linecap="round" stroke-linejoin="round"/>
</g>
<defs>
<radialGradient id="paint0_radial" cx="0" cy="0" r="1" gradientUnits="userSpaceOnUse" gradientTransform="translate(125.287 237.225) scale(35.3654 40.7314)">
<stop offset="0.4209" stop-color="#BCD1FC"/>
<stop offset="0.5492" stop-color="#C6D7FD" stop-opacity="0.765"/>
<stop offset="0.767" stop-color="#E1EAFE" stop-opacity="0.3662"/>
<stop offset="0.9669" stop-color="white" stop-opacity="0"/>
</radialGradient>
<clipPath id="clip0">
<rect width="220" height="723" fill="white"/>
</clipPath>
</defs>
</svg>
